<svg width="38" height="39" viewBox="0 0 38 39" fill="none" xmlns="http://www.w3.org/2000/svg">
    <path d="M7.917 18.167h6.333A3.176 3.176 0 0 0 17.417 15V8.667A3.176 3.176 0 0 0 14.25 5.5H7.917A3.176 3.176 0 0 0 4.75 8.667V15a3.176 3.176 0 0 0 3.167 3.167zm0 15.833h6.333a3.176 3.176 0 0 0 3.167-3.167V24.5a3.176 3.176 0 0 0-3.167-3.167H7.917A3.176 3.176 0 0 0 4.75 24.5v6.333A3.176 3.176 0 0 0 7.917 34zM20.583 8.667V15a3.176 3.176 0 0 0 3.167 3.167h6.333A3.176 3.176 0 0 0 33.25 15V8.667A3.176 3.176 0 0 0 30.083 5.5H23.75a3.176 3.176 0 0 0-3.167 3.167zM23.75 34h6.333a3.176 3.176 0 0 0 3.167-3.167V24.5a3.176 3.176 0 0 0-3.167-3.167H23.75a3.176 3.176 0 0 0-3.167 3.167v6.333A3.176 3.176 0 0 0 23.75 34z" fill="#FFAD00"/>
</svg>
